<mxfile host="app.diagrams.net" modified="2023-09-04T01:05:01.595Z" agent="Mozilla/5.0 (Windows NT 10.0; Win64; x64) AppleWebKit/537.36 (KHTML, like Gecko) Chrome/116.0.0.0 Safari/537.36" etag="oF5Za3EPa9QexUywPszb" version="21.7.2" type="github">
  <diagram name="Halaman-1" id="FLZogfNPdHtCOLYkf_cc">
    <mxGraphModel dx="1035" dy="553" grid="1" gridSize="10" guides="1" tooltips="1" connect="1" arrows="1" fold="1" page="1" pageScale="1" pageWidth="827" pageHeight="1169" math="0" shadow="0">
      <root>
        <mxCell id="0" />
        <mxCell id="1" parent="0" />
        <mxCell id="mKeiefxXbpBoBc3InFrY-3" value="" style="edgeStyle=orthogonalEdgeStyle;rounded=0;orthogonalLoop=1;jettySize=auto;html=1;" edge="1" parent="1" source="mKeiefxXbpBoBc3InFrY-1" target="mKeiefxXbpBoBc3InFrY-2">
          <mxGeometry relative="1" as="geometry" />
        </mxCell>
        <mxCell id="mKeiefxXbpBoBc3InFrY-1" value="Mulai&lt;br&gt;" style="ellipse;whiteSpace=wrap;html=1;" vertex="1" parent="1">
          <mxGeometry x="270" y="40" width="120" height="80" as="geometry" />
        </mxCell>
        <mxCell id="mKeiefxXbpBoBc3InFrY-5" value="" style="edgeStyle=orthogonalEdgeStyle;rounded=0;orthogonalLoop=1;jettySize=auto;html=1;" edge="1" parent="1" source="mKeiefxXbpBoBc3InFrY-2" target="mKeiefxXbpBoBc3InFrY-4">
          <mxGeometry relative="1" as="geometry" />
        </mxCell>
        <mxCell id="mKeiefxXbpBoBc3InFrY-2" value="Menu Login&lt;br&gt;" style="whiteSpace=wrap;html=1;" vertex="1" parent="1">
          <mxGeometry x="270" y="210" width="120" height="60" as="geometry" />
        </mxCell>
        <mxCell id="mKeiefxXbpBoBc3InFrY-7" value="" style="edgeStyle=orthogonalEdgeStyle;rounded=0;orthogonalLoop=1;jettySize=auto;html=1;" edge="1" parent="1" source="mKeiefxXbpBoBc3InFrY-4" target="mKeiefxXbpBoBc3InFrY-6">
          <mxGeometry relative="1" as="geometry" />
        </mxCell>
        <mxCell id="mKeiefxXbpBoBc3InFrY-4" value="input username &amp;amp; password" style="shape=parallelogram;perimeter=parallelogramPerimeter;whiteSpace=wrap;html=1;fixedSize=1;" vertex="1" parent="1">
          <mxGeometry x="260" y="350" width="140" height="60" as="geometry" />
        </mxCell>
        <mxCell id="mKeiefxXbpBoBc3InFrY-9" value="" style="edgeStyle=orthogonalEdgeStyle;rounded=0;orthogonalLoop=1;jettySize=auto;html=1;" edge="1" parent="1" source="mKeiefxXbpBoBc3InFrY-6" target="mKeiefxXbpBoBc3InFrY-8">
          <mxGeometry relative="1" as="geometry" />
        </mxCell>
        <mxCell id="mKeiefxXbpBoBc3InFrY-10" value="Benar" style="edgeLabel;html=1;align=center;verticalAlign=middle;resizable=0;points=[];" vertex="1" connectable="0" parent="mKeiefxXbpBoBc3InFrY-9">
          <mxGeometry x="-0.2364" y="-1" relative="1" as="geometry">
            <mxPoint as="offset" />
          </mxGeometry>
        </mxCell>
        <mxCell id="mKeiefxXbpBoBc3InFrY-11" style="edgeStyle=orthogonalEdgeStyle;rounded=0;orthogonalLoop=1;jettySize=auto;html=1;exitX=0;exitY=0.5;exitDx=0;exitDy=0;entryX=0;entryY=0.5;entryDx=0;entryDy=0;" edge="1" parent="1" source="mKeiefxXbpBoBc3InFrY-6" target="mKeiefxXbpBoBc3InFrY-4">
          <mxGeometry relative="1" as="geometry">
            <Array as="points">
              <mxPoint x="220" y="520" />
              <mxPoint x="220" y="380" />
            </Array>
          </mxGeometry>
        </mxCell>
        <mxCell id="mKeiefxXbpBoBc3InFrY-12" value="Salah" style="edgeLabel;html=1;align=center;verticalAlign=middle;resizable=0;points=[];" vertex="1" connectable="0" parent="mKeiefxXbpBoBc3InFrY-11">
          <mxGeometry x="0.0167" relative="1" as="geometry">
            <mxPoint as="offset" />
          </mxGeometry>
        </mxCell>
        <mxCell id="mKeiefxXbpBoBc3InFrY-6" value="Cek username &amp;amp; password" style="rhombus;whiteSpace=wrap;html=1;" vertex="1" parent="1">
          <mxGeometry x="270" y="460" width="120" height="120" as="geometry" />
        </mxCell>
        <mxCell id="mKeiefxXbpBoBc3InFrY-14" value="" style="edgeStyle=orthogonalEdgeStyle;rounded=0;orthogonalLoop=1;jettySize=auto;html=1;" edge="1" parent="1" source="mKeiefxXbpBoBc3InFrY-8" target="mKeiefxXbpBoBc3InFrY-13">
          <mxGeometry relative="1" as="geometry" />
        </mxCell>
        <mxCell id="mKeiefxXbpBoBc3InFrY-8" value="Dashboard" style="whiteSpace=wrap;html=1;" vertex="1" parent="1">
          <mxGeometry x="270" y="690" width="120" height="60" as="geometry" />
        </mxCell>
        <mxCell id="mKeiefxXbpBoBc3InFrY-13" value="Selesai&lt;br&gt;" style="ellipse;whiteSpace=wrap;html=1;" vertex="1" parent="1">
          <mxGeometry x="260" y="820" width="140" height="80" as="geometry" />
        </mxCell>
        <mxCell id="mKeiefxXbpBoBc3InFrY-15" value="" style="edgeStyle=orthogonalEdgeStyle;rounded=0;orthogonalLoop=1;jettySize=auto;html=1;" edge="1" parent="1" source="mKeiefxXbpBoBc3InFrY-16" target="mKeiefxXbpBoBc3InFrY-18">
          <mxGeometry relative="1" as="geometry" />
        </mxCell>
        <mxCell id="mKeiefxXbpBoBc3InFrY-16" value="Mulai&lt;br&gt;" style="ellipse;whiteSpace=wrap;html=1;" vertex="1" parent="1">
          <mxGeometry x="590" y="30" width="120" height="80" as="geometry" />
        </mxCell>
        <mxCell id="mKeiefxXbpBoBc3InFrY-17" value="" style="edgeStyle=orthogonalEdgeStyle;rounded=0;orthogonalLoop=1;jettySize=auto;html=1;" edge="1" parent="1" source="mKeiefxXbpBoBc3InFrY-18" target="mKeiefxXbpBoBc3InFrY-20">
          <mxGeometry relative="1" as="geometry" />
        </mxCell>
        <mxCell id="mKeiefxXbpBoBc3InFrY-18" value="Menu Dashboard" style="whiteSpace=wrap;html=1;" vertex="1" parent="1">
          <mxGeometry x="590" y="200" width="120" height="60" as="geometry" />
        </mxCell>
        <mxCell id="mKeiefxXbpBoBc3InFrY-19" value="" style="edgeStyle=orthogonalEdgeStyle;rounded=0;orthogonalLoop=1;jettySize=auto;html=1;" edge="1" parent="1" source="mKeiefxXbpBoBc3InFrY-20" target="mKeiefxXbpBoBc3InFrY-25">
          <mxGeometry relative="1" as="geometry" />
        </mxCell>
        <mxCell id="mKeiefxXbpBoBc3InFrY-20" value="Memilih Menu&amp;nbsp;" style="shape=parallelogram;perimeter=parallelogramPerimeter;whiteSpace=wrap;html=1;fixedSize=1;" vertex="1" parent="1">
          <mxGeometry x="580" y="340" width="140" height="60" as="geometry" />
        </mxCell>
        <mxCell id="mKeiefxXbpBoBc3InFrY-21" value="" style="edgeStyle=orthogonalEdgeStyle;rounded=0;orthogonalLoop=1;jettySize=auto;html=1;" edge="1" parent="1" source="mKeiefxXbpBoBc3InFrY-25" target="mKeiefxXbpBoBc3InFrY-27">
          <mxGeometry relative="1" as="geometry" />
        </mxCell>
        <mxCell id="mKeiefxXbpBoBc3InFrY-22" value="Ya" style="edgeLabel;html=1;align=center;verticalAlign=middle;resizable=0;points=[];" vertex="1" connectable="0" parent="mKeiefxXbpBoBc3InFrY-21">
          <mxGeometry x="-0.2364" y="-1" relative="1" as="geometry">
            <mxPoint as="offset" />
          </mxGeometry>
        </mxCell>
        <mxCell id="mKeiefxXbpBoBc3InFrY-39" value="Tidak" style="edgeStyle=orthogonalEdgeStyle;rounded=0;orthogonalLoop=1;jettySize=auto;html=1;exitX=1;exitY=0.5;exitDx=0;exitDy=0;entryX=0;entryY=0.5;entryDx=0;entryDy=0;" edge="1" parent="1" source="mKeiefxXbpBoBc3InFrY-25" target="mKeiefxXbpBoBc3InFrY-31">
          <mxGeometry relative="1" as="geometry" />
        </mxCell>
        <mxCell id="mKeiefxXbpBoBc3InFrY-25" value="apakah user memilih menu penyewaan?" style="rhombus;whiteSpace=wrap;html=1;" vertex="1" parent="1">
          <mxGeometry x="580" y="440" width="140" height="140" as="geometry" />
        </mxCell>
        <mxCell id="mKeiefxXbpBoBc3InFrY-26" value="" style="edgeStyle=orthogonalEdgeStyle;rounded=0;orthogonalLoop=1;jettySize=auto;html=1;" edge="1" parent="1" source="mKeiefxXbpBoBc3InFrY-27" target="mKeiefxXbpBoBc3InFrY-28">
          <mxGeometry relative="1" as="geometry" />
        </mxCell>
        <mxCell id="mKeiefxXbpBoBc3InFrY-27" value="Menu Penyewaan" style="whiteSpace=wrap;html=1;" vertex="1" parent="1">
          <mxGeometry x="590" y="680" width="120" height="60" as="geometry" />
        </mxCell>
        <mxCell id="mKeiefxXbpBoBc3InFrY-28" value="Selesai&lt;br&gt;" style="ellipse;whiteSpace=wrap;html=1;" vertex="1" parent="1">
          <mxGeometry x="580" y="810" width="140" height="80" as="geometry" />
        </mxCell>
        <mxCell id="mKeiefxXbpBoBc3InFrY-49" style="edgeStyle=orthogonalEdgeStyle;rounded=0;orthogonalLoop=1;jettySize=auto;html=1;exitX=0.5;exitY=1;exitDx=0;exitDy=0;entryX=0.5;entryY=0;entryDx=0;entryDy=0;" edge="1" parent="1" source="mKeiefxXbpBoBc3InFrY-29" target="mKeiefxXbpBoBc3InFrY-46">
          <mxGeometry relative="1" as="geometry" />
        </mxCell>
        <mxCell id="mKeiefxXbpBoBc3InFrY-29" value="Menu Pengembalian" style="whiteSpace=wrap;html=1;" vertex="1" parent="1">
          <mxGeometry x="820" y="680" width="120" height="60" as="geometry" />
        </mxCell>
        <mxCell id="mKeiefxXbpBoBc3InFrY-41" value="Ya" style="edgeStyle=orthogonalEdgeStyle;rounded=0;orthogonalLoop=1;jettySize=auto;html=1;exitX=0.5;exitY=1;exitDx=0;exitDy=0;entryX=0.5;entryY=0;entryDx=0;entryDy=0;" edge="1" parent="1" source="mKeiefxXbpBoBc3InFrY-31" target="mKeiefxXbpBoBc3InFrY-29">
          <mxGeometry relative="1" as="geometry" />
        </mxCell>
        <mxCell id="mKeiefxXbpBoBc3InFrY-66" style="edgeStyle=orthogonalEdgeStyle;rounded=0;orthogonalLoop=1;jettySize=auto;html=1;exitX=0.5;exitY=0;exitDx=0;exitDy=0;entryX=1;entryY=0.5;entryDx=0;entryDy=0;" edge="1" parent="1" source="mKeiefxXbpBoBc3InFrY-31" target="mKeiefxXbpBoBc3InFrY-20">
          <mxGeometry relative="1" as="geometry">
            <Array as="points">
              <mxPoint x="880" y="370" />
            </Array>
          </mxGeometry>
        </mxCell>
        <mxCell id="mKeiefxXbpBoBc3InFrY-31" value="apakah user memilih menu pengembalian?" style="rhombus;whiteSpace=wrap;html=1;" vertex="1" parent="1">
          <mxGeometry x="810" y="440" width="140" height="140" as="geometry" />
        </mxCell>
        <mxCell id="mKeiefxXbpBoBc3InFrY-46" value="Selesai&lt;br&gt;" style="ellipse;whiteSpace=wrap;html=1;" vertex="1" parent="1">
          <mxGeometry x="810" y="810" width="140" height="80" as="geometry" />
        </mxCell>
        <mxCell id="mKeiefxXbpBoBc3InFrY-52" value="" style="edgeStyle=orthogonalEdgeStyle;rounded=0;orthogonalLoop=1;jettySize=auto;html=1;" edge="1" parent="1" source="mKeiefxXbpBoBc3InFrY-53" target="mKeiefxXbpBoBc3InFrY-55">
          <mxGeometry relative="1" as="geometry" />
        </mxCell>
        <mxCell id="mKeiefxXbpBoBc3InFrY-53" value="Mulai&lt;br&gt;" style="ellipse;whiteSpace=wrap;html=1;" vertex="1" parent="1">
          <mxGeometry x="1291" y="30" width="120" height="80" as="geometry" />
        </mxCell>
        <mxCell id="mKeiefxXbpBoBc3InFrY-54" value="" style="edgeStyle=orthogonalEdgeStyle;rounded=0;orthogonalLoop=1;jettySize=auto;html=1;" edge="1" parent="1" source="mKeiefxXbpBoBc3InFrY-55" target="mKeiefxXbpBoBc3InFrY-57">
          <mxGeometry relative="1" as="geometry" />
        </mxCell>
        <mxCell id="mKeiefxXbpBoBc3InFrY-55" value="Menu Penyewaan" style="whiteSpace=wrap;html=1;" vertex="1" parent="1">
          <mxGeometry x="1291" y="200" width="120" height="60" as="geometry" />
        </mxCell>
        <mxCell id="mKeiefxXbpBoBc3InFrY-56" value="" style="edgeStyle=orthogonalEdgeStyle;rounded=0;orthogonalLoop=1;jettySize=auto;html=1;" edge="1" parent="1" source="mKeiefxXbpBoBc3InFrY-57" target="mKeiefxXbpBoBc3InFrY-62">
          <mxGeometry relative="1" as="geometry" />
        </mxCell>
        <mxCell id="mKeiefxXbpBoBc3InFrY-57" value="inputkan nama barang" style="shape=parallelogram;perimeter=parallelogramPerimeter;whiteSpace=wrap;html=1;fixedSize=1;" vertex="1" parent="1">
          <mxGeometry x="1281" y="340" width="140" height="60" as="geometry" />
        </mxCell>
        <mxCell id="mKeiefxXbpBoBc3InFrY-58" value="" style="edgeStyle=orthogonalEdgeStyle;rounded=0;orthogonalLoop=1;jettySize=auto;html=1;" edge="1" parent="1" source="mKeiefxXbpBoBc3InFrY-62" target="mKeiefxXbpBoBc3InFrY-64">
          <mxGeometry relative="1" as="geometry" />
        </mxCell>
        <mxCell id="mKeiefxXbpBoBc3InFrY-59" value="Benar" style="edgeLabel;html=1;align=center;verticalAlign=middle;resizable=0;points=[];" vertex="1" connectable="0" parent="mKeiefxXbpBoBc3InFrY-58">
          <mxGeometry x="-0.2364" y="-1" relative="1" as="geometry">
            <mxPoint as="offset" />
          </mxGeometry>
        </mxCell>
        <mxCell id="mKeiefxXbpBoBc3InFrY-60" style="edgeStyle=orthogonalEdgeStyle;rounded=0;orthogonalLoop=1;jettySize=auto;html=1;exitX=0;exitY=0.5;exitDx=0;exitDy=0;entryX=0;entryY=0.5;entryDx=0;entryDy=0;" edge="1" parent="1" source="mKeiefxXbpBoBc3InFrY-62" target="mKeiefxXbpBoBc3InFrY-57">
          <mxGeometry relative="1" as="geometry">
            <Array as="points">
              <mxPoint x="1241" y="510" />
              <mxPoint x="1241" y="370" />
            </Array>
          </mxGeometry>
        </mxCell>
        <mxCell id="mKeiefxXbpBoBc3InFrY-61" value="Salah" style="edgeLabel;html=1;align=center;verticalAlign=middle;resizable=0;points=[];" vertex="1" connectable="0" parent="mKeiefxXbpBoBc3InFrY-60">
          <mxGeometry x="0.0167" relative="1" as="geometry">
            <mxPoint as="offset" />
          </mxGeometry>
        </mxCell>
        <mxCell id="mKeiefxXbpBoBc3InFrY-62" value="apakah barang tersedia?" style="rhombus;whiteSpace=wrap;html=1;" vertex="1" parent="1">
          <mxGeometry x="1291" y="450" width="120" height="120" as="geometry" />
        </mxCell>
        <mxCell id="mKeiefxXbpBoBc3InFrY-70" value="" style="edgeStyle=orthogonalEdgeStyle;rounded=0;orthogonalLoop=1;jettySize=auto;html=1;" edge="1" parent="1" source="mKeiefxXbpBoBc3InFrY-64" target="mKeiefxXbpBoBc3InFrY-69">
          <mxGeometry relative="1" as="geometry" />
        </mxCell>
        <mxCell id="mKeiefxXbpBoBc3InFrY-64" value="Tampilkan daftar barang" style="whiteSpace=wrap;html=1;" vertex="1" parent="1">
          <mxGeometry x="1291" y="680" width="120" height="60" as="geometry" />
        </mxCell>
        <mxCell id="mKeiefxXbpBoBc3InFrY-75" style="edgeStyle=orthogonalEdgeStyle;rounded=0;orthogonalLoop=1;jettySize=auto;html=1;exitX=0.5;exitY=1;exitDx=0;exitDy=0;entryX=0.5;entryY=0;entryDx=0;entryDy=0;" edge="1" parent="1" source="mKeiefxXbpBoBc3InFrY-69" target="mKeiefxXbpBoBc3InFrY-73">
          <mxGeometry relative="1" as="geometry" />
        </mxCell>
        <mxCell id="mKeiefxXbpBoBc3InFrY-69" value="User memilih barang" style="shape=parallelogram;perimeter=parallelogramPerimeter;whiteSpace=wrap;html=1;fixedSize=1;" vertex="1" parent="1">
          <mxGeometry x="1270" y="820" width="162" height="60" as="geometry" />
        </mxCell>
        <mxCell id="mKeiefxXbpBoBc3InFrY-78" value="Tidak" style="edgeStyle=orthogonalEdgeStyle;rounded=0;orthogonalLoop=1;jettySize=auto;html=1;exitX=1;exitY=0.5;exitDx=0;exitDy=0;entryX=1;entryY=0.5;entryDx=0;entryDy=0;" edge="1" parent="1" source="mKeiefxXbpBoBc3InFrY-71" target="mKeiefxXbpBoBc3InFrY-69">
          <mxGeometry relative="1" as="geometry">
            <Array as="points">
              <mxPoint x="1510" y="1160" />
              <mxPoint x="1510" y="850" />
            </Array>
          </mxGeometry>
        </mxCell>
        <mxCell id="mKeiefxXbpBoBc3InFrY-82" value="" style="edgeStyle=orthogonalEdgeStyle;rounded=0;orthogonalLoop=1;jettySize=auto;html=1;" edge="1" parent="1" source="mKeiefxXbpBoBc3InFrY-71" target="mKeiefxXbpBoBc3InFrY-81">
          <mxGeometry relative="1" as="geometry" />
        </mxCell>
        <mxCell id="mKeiefxXbpBoBc3InFrY-71" value="Apakah user menyewa barang yang di pilih?" style="rhombus;whiteSpace=wrap;html=1;" vertex="1" parent="1">
          <mxGeometry x="1291" y="1090" width="120" height="140" as="geometry" />
        </mxCell>
        <mxCell id="mKeiefxXbpBoBc3InFrY-77" style="edgeStyle=orthogonalEdgeStyle;rounded=0;orthogonalLoop=1;jettySize=auto;html=1;exitX=0.5;exitY=1;exitDx=0;exitDy=0;entryX=0.5;entryY=0;entryDx=0;entryDy=0;" edge="1" parent="1" source="mKeiefxXbpBoBc3InFrY-73" target="mKeiefxXbpBoBc3InFrY-71">
          <mxGeometry relative="1" as="geometry" />
        </mxCell>
        <mxCell id="mKeiefxXbpBoBc3InFrY-73" value="Tampilkan menu detail barang" style="whiteSpace=wrap;html=1;" vertex="1" parent="1">
          <mxGeometry x="1291" y="950" width="120" height="60" as="geometry" />
        </mxCell>
        <mxCell id="mKeiefxXbpBoBc3InFrY-84" value="" style="edgeStyle=orthogonalEdgeStyle;rounded=0;orthogonalLoop=1;jettySize=auto;html=1;" edge="1" parent="1" source="mKeiefxXbpBoBc3InFrY-81" target="mKeiefxXbpBoBc3InFrY-83">
          <mxGeometry relative="1" as="geometry" />
        </mxCell>
        <mxCell id="mKeiefxXbpBoBc3InFrY-81" value="Halaman inputan" style="whiteSpace=wrap;html=1;" vertex="1" parent="1">
          <mxGeometry x="1291" y="1290" width="120" height="60" as="geometry" />
        </mxCell>
        <mxCell id="mKeiefxXbpBoBc3InFrY-86" value="" style="edgeStyle=orthogonalEdgeStyle;rounded=0;orthogonalLoop=1;jettySize=auto;html=1;" edge="1" parent="1" source="mKeiefxXbpBoBc3InFrY-83" target="mKeiefxXbpBoBc3InFrY-85">
          <mxGeometry relative="1" as="geometry" />
        </mxCell>
        <mxCell id="mKeiefxXbpBoBc3InFrY-83" value="Masukkan nomor induk KTP/SIM/KK" style="shape=parallelogram;perimeter=parallelogramPerimeter;whiteSpace=wrap;html=1;fixedSize=1;" vertex="1" parent="1">
          <mxGeometry x="1272" y="1420" width="158" height="80" as="geometry" />
        </mxCell>
        <mxCell id="mKeiefxXbpBoBc3InFrY-85" value="Apakah memenuhi syarat validasi?" style="rhombus;whiteSpace=wrap;html=1;" vertex="1" parent="1">
          <mxGeometry x="1290" y="1560" width="122" height="120" as="geometry" />
        </mxCell>
      </root>
    </mxGraphModel>
  </diagram>
</mxfile>
